<?xml version="1.0" standalone="no"?>
<!DOCTYPE svg PUBLIC "-//W3C//DTD SVG 20010904//EN"
 "http://www.w3.org/TR/2001/REC-SVG-20010904/DTD/svg10.dtd">
<svg version="1.0" xmlns="http://www.w3.org/2000/svg"
 width="1080.000000pt" height="1080.000000pt" viewBox="0 0 1080.000000 1080.000000"
 preserveAspectRatio="xMidYMid meet">

<g transform="translate(0.000000,1080.000000) scale(0.100000,-0.100000)"
fill="#000000" stroke="none">
<path d="M0 5400 l0 -5400 5400 0 5400 0 0 5400 0 5400 -5400 0 -5400 0 0
-5400z m9035 3782 c387 -112 680 -419 771 -807 15 -64 17 -327 26 -2870 7
-2146 6 -2820 -3 -2885 -25 -183 -100 -353 -222 -505 -154 -191 -357 -314
-617 -371 -69 -15 -355 -17 -3510 -20 -2449 -3 -3462 -1 -3530 7 -239 28 -443
125 -623 299 -141 134 -241 304 -299 505 l-23 80 -3 2795 c-2 1973 0 2820 8
2879 35 268 195 541 414 704 138 103 294 174 445 202 64 11 640 13 3581 12
l3505 -2 80 -23z"/>
<path d="M1905 8843 c-82 -17 -210 -77 -280 -130 -118 -91 -215 -243 -256
-403 l-22 -85 -4 -2708 c-3 -1846 -1 -2734 6 -2793 22 -180 99 -333 229 -455
72 -69 149 -114 265 -157 l72 -27 3123 -3 3123 -2 -34 30 c-19 17 -42 45 -51
64 -15 32 -82 301 -275 1101 -51 209 -104 426 -118 483 -24 93 -25 109 -15
163 27 145 160 251 295 236 58 -7 109 -33 342 -170 94 -55 312 -183 485 -285
173 -101 397 -233 498 -293 101 -60 188 -109 194 -109 14 0 1 4891 -13 4970
-43 233 -178 414 -384 516 -163 80 170 74 -3670 73 -3011 -1 -3449 -2 -3510
-16z m400 -507 c79 -36 132 -108 142 -194 15 -133 -85 -255 -221 -269 -97 -10
-192 42 -239 131 -30 57 -30 165 0 221 63 119 200 167 318 111z m778 9 c121
-50 190 -206 143 -319 -19 -47 -73 -104 -120 -129 -64 -33 -166 -31 -229 6
-173 102 -163 349 18 433 59 28 135 31 188 9z m821 1 c80 -33 142 -117 153
-204 22 -190 -184 -331 -362 -248 -55 25 -110 81 -131 132 -17 40 -18 114 -3
168 14 49 103 141 150 154 51 15 155 14 193 -2z m-901 -1393 c177 -119 383
-258 457 -308 74 -50 254 -172 400 -270 231 -155 435 -294 835 -568 55 -38
156 -107 225 -153 69 -47 199 -137 290 -200 91 -63 175 -119 187 -125 22 -12
57 11 428 272 74 52 668 466 830 579 77 53 253 175 390 270 138 96 279 194
315 219 36 24 115 79 175 121 61 42 146 102 190 132 44 30 143 99 220 152 141
97 183 114 213 84 9 -9 12 -342 12 -1435 0 -783 -2 -1423 -4 -1423 -2 0 -29
12 -60 26 -66 30 -167 43 -246 32 -172 -25 -331 -172 -376 -349 -30 -116 -22
-167 107 -684 36 -142 89 -376 89 -390 0 -3 -130 -5 -290 -5 l-290 0 0 1170
c0 644 -3 1170 -6 1170 -6 0 -73 -45 -234 -157 -52 -36 -165 -114 -250 -173
-85 -58 -193 -133 -240 -165 -47 -33 -141 -97 -210 -145 -69 -47 -209 -143
-310 -213 -390 -270 -444 -307 -455 -307 -10 0 -80 47 -445 300 -69 47 -251
173 -405 280 -154 106 -401 277 -550 380 -255 177 -306 210 -319 210 -3 0 -7
-528 -8 -1172 l-3 -1173 -535 0 -535 0 -3 2104 c-1 1547 1 2107 9 2117 6 8 27
14 46 14 29 0 91 -38 356 -217z"/>
<path d="M7948 3933 c6 -2 18 -2 25 0 6 3 1 5 -13 5 -14 0 -19 -2 -12 -5z"/>
<path d="M7890 3915 c-19 -22 -8 -25 13 -3 9 10 13 18 8 18 -5 0 -14 -7 -21
-15z"/>
<path d="M8006 3913 c16 -17 16 -18 1 -21 -9 -2 -17 -12 -17 -23 0 -17 3 -18
20 -9 11 6 20 15 20 21 0 6 9 8 23 4 15 -5 10 2 -15 19 -43 30 -57 34 -32 9z"/>
<path d="M8173 3816 c9 -7 17 -20 17 -29 0 -9 5 -19 12 -23 8 -5 9 -2 5 9 -6
16 -3 16 28 3 19 -8 35 -13 35 -12 0 7 -96 66 -106 66 -5 0 -1 -7 9 -14z"/>
<path d="M7900 3751 c0 -9 3 -25 6 -37 5 -20 7 -20 39 -5 19 9 34 24 35 33 0
9 6 18 13 21 6 2 -12 4 -40 4 -42 0 -53 -4 -53 -16z"/>
<path d="M8370 3706 c0 -2 16 -13 36 -25 19 -12 32 -16 29 -11 -7 11 -65 43
-65 36z"/>
<path d="M7937 3575 c7 -47 31 -109 32 -82 1 9 7 16 14 15 8 -2 12 9 12 32 0
31 -3 35 -27 38 -15 2 -29 11 -32 20 -2 9 -2 -1 1 -23z"/>
<path d="M8570 3586 c0 -2 7 -7 16 -10 8 -3 12 -2 9 4 -6 10 -25 14 -25 6z"/>
<path d="M8870 3410 c8 -5 20 -10 25 -10 6 0 3 5 -5 10 -8 5 -19 10 -25 10 -5
0 -3 -5 5 -10z"/>
<path d="M8937 3369 c7 -7 15 -10 18 -7 3 3 -2 9 -12 12 -14 6 -15 5 -6 -5z"/>
<path d="M7997 3325 c3 -22 13 -65 23 -95 10 -30 20 -64 22 -75 5 -23 18 88
15 125 -1 17 -9 26 -24 28 -13 2 -26 14 -32 30 -9 24 -10 22 -4 -13z"/>
<path d="M8977 3349 c7 -7 15 -10 18 -7 3 3 -2 9 -12 12 -14 6 -15 5 -6 -5z"/>
<path d="M9053 3304 c12 -13 127 -76 127 -71 0 6 -93 63 -115 71 -11 4 -16 4
-12 0z"/>
<path d="M9336 3135 c10 -8 25 -15 31 -15 19 0 71 -58 76 -83 4 -22 4 -22 6
-1 2 30 -34 71 -82 94 -49 24 -58 25 -31 5z"/>
<path d="M9400 3066 c0 -9 5 -16 10 -16 6 0 10 4 10 9 0 6 -4 13 -10 16 -5 3
-10 -1 -10 -9z"/>
<path d="M8080 3006 c0 -8 5 -37 12 -66 l12 -51 13 32 c18 43 17 85 -3 93 -25
9 -34 7 -34 -8z"/>
<path d="M9220 2965 c-9 -10 -22 -14 -39 -10 -17 3 -37 -2 -56 -15 -30 -20
-30 -20 -5 -19 14 0 58 6 99 12 l74 12 -26 18 c-32 21 -31 21 -47 2z"/>
<path d="M8666 2844 c-4 -9 -4 -19 -1 -22 3 -3 5 0 5 6 0 6 15 16 33 21 l32 9
-31 1 c-21 1 -34 -5 -38 -15z"/>
<path d="M9469 2776 c-4 -4 -158 -32 -499 -92 l-156 -27 -139 -256 c-77 -140
-154 -270 -172 -289 l-32 -34 237 4 c218 3 242 6 302 27 140 50 261 132 333
226 49 65 113 195 132 270 23 90 19 195 -6 171z"/>
<path d="M8140 2753 c0 -7 5 -36 12 -65 10 -46 12 -50 19 -28 11 40 10 54 -11
80 -11 14 -20 20 -20 13z"/>
<path d="M8567 2654 c-10 -14 -22 -22 -27 -19 -5 3 -12 1 -15 -5 -4 -6 -15 -8
-26 -5 -24 8 -36 -19 -17 -39 10 -9 20 -11 30 -5 13 7 15 5 11 -14 -3 -12 12
7 32 42 38 66 43 87 12 45z"/>
<path d="M8171 2604 c0 -11 3 -14 6 -6 3 7 2 16 -1 19 -3 4 -6 -2 -5 -13z"/>
<path d="M8395 2590 c-3 -11 -4 -24 0 -29 3 -6 -3 -14 -12 -20 -15 -9 -13 -10
12 -11 41 0 64 34 35 50 -11 6 -18 15 -15 21 4 5 2 9 -4 9 -5 0 -12 -9 -16
-20z"/>
<path d="M8188 2555 c-3 -3 2 -30 10 -60 17 -61 31 -65 76 -20 24 23 20 55 -4
40 -8 -5 -11 -4 -6 3 8 13 -23 31 -43 24 -7 -2 -16 1 -20 7 -4 6 -10 9 -13 6z"/>
<path d="M8426 2394 c-23 -50 -16 -52 11 -3 12 21 18 39 14 39 -4 0 -15 -16
-25 -36z"/>
<path d="M8250 2300 c0 -24 22 -51 36 -46 9 3 12 1 9 -4 -3 -6 5 -10 19 -10
14 0 27 4 31 10 7 12 -30 50 -49 50 -8 0 -21 3 -30 6 -9 3 -16 1 -16 -6z"/>
</g>
</svg>
